<svg xmlns="http://www.w3.org/2000/svg" viewBox="0 0 400 400" role="img" aria-label="linuxbox">
  <rect width="400" height="400" fill="#0b0c10"/>
  <path d="M40 0 v400 M100 0 v400 M300 0 v400 M360 0 v400" stroke="#1f2833" stroke-width="2"/>
  <path d="M0 40 h400 M0 360 h400" stroke="#1f2833" stroke-width="2"/>
  <path d="M0 150 l100 -50 h300 M0 280 l150 -50 h250" stroke="#45a29e" stroke-width="2" fill="none" opacity="0.6"/>
  <circle cx="100" cy="100" r="4" fill="#66fcf1"/>
  <circle cx="150" cy="230" r="4" fill="#66fcf1"/>
  <circle cx="280" cy="230" r="3" fill="#f00561"/>
  <path d="M120 100 h40 v160 h120 v40 h-160 z" fill="#0b0c10" stroke="#66fcf1" stroke-width="4"/>
  <rect x="130" y="115" width="20" height="50" fill="#66fcf1"/>
  <rect x="130" y="175" width="20" height="15" fill="#f00561"/>
  <rect x="180" y="270" width="50" height="20" fill="#66fcf1"/>
  <rect x="240" y="270" width="15" height="20" fill="#f00561"/>
</svg>
